<?xml version="1.0" encoding="UTF-8"?>
<svg id="_레이어_2" data-name="레이어 2" xmlns="http://www.w3.org/2000/svg" viewBox="0 0 102.14 137.3">
  <defs>
    <style>
      .cls-1 {
        fill: #fff;
      }
    </style>
  </defs>
  <g id="_레이어_1-2" data-name="레이어 1">
    <g id="Layer_2" data-name="Layer 2">
      <g id="Layer_1-2" data-name="Layer 1-2">
        <path class="cls-1" d="m46.13,6.61C41.86,2.2,35.75,0,27.82,0H0v51.41h25.24c3.61.07,7.22-.25,10.76-.95,2.52-.5,4.9-1.52,7-3,3.11-2.33,5.53-5.47,7-9.07,1.72-4.11,2.57-8.54,2.5-13,.03-8.11-2.1-14.37-6.37-18.78Zm-21.67,24.71c-3.31,0-6-2.69-6-6s2.69-6,6-6,6,2.69,6,6-2.69,6-6,6Z"/>
        <path class="cls-1" d="m73,28.13h-11.43l-28.77,50.87h69.34l-29.14-50.87Zm-5.5,36.3c-3.31,0-6-2.69-6-6s2.69-6,6-6,6,2.69,6,6-2.69,6-6,6h0Z"/>
        <path class="cls-1" d="m60.19,84l-15.14,20.85-15.78-20.85H12.92v53.3h15.46v-23.11l10.85,23.08h11l10.85-23.08v23.08h15.46v-53.27h-16.35Zm-15.56,40c-3.31,0-6-2.69-6-6s2.69-6,6-6,6,2.69,6,6-2.69,6-6,6Z"/>
      </g>
    </g>
  </g>
</svg>